<?xml version="1.0" encoding="UTF-8"?>
<svg version="1.1" xmlns="http://www.w3.org/2000/svg" width="1000" height="400">
<path d="M0 0 C9.57 0 19.14 0 29 0 C30.815 4.41375 32.63 8.8275 34.5 13.375 C35.07427734 14.76638184 35.64855469 16.15776367 36.24023438 17.59130859 C36.68689453 18.68266113 37.13355469 19.77401367 37.59375 20.8984375 C38.05458984 22.01911621 38.51542969 23.13979492 38.99023438 24.29443359 C40 27 40 27 40 29 C40.66 29 41.32 29 42 29 C42.16870605 28.46632812 42.33741211 27.93265625 42.51123047 27.3828125 C44.4301609 21.45553507 46.68458777 15.73005217 49.125 10 C49.66447266 8.71416016 49.66447266 8.71416016 50.21484375 7.40234375 C52.86811041 1.13188959 52.86811041 1.13188959 54 0 C55.99964982 -0.08758003 58.0023611 -0.10696576 60.00390625 -0.09765625 C61.21884766 -0.09443359 62.43378906 -0.09121094 63.68554688 -0.08789062 C64.96494141 -0.07951172 66.24433594 -0.07113281 67.5625 -0.0625 C68.84576172 -0.05798828 70.12902344 -0.05347656 71.45117188 -0.04882812 C74.6341342 -0.03699555 77.81707274 -0.01905944 81 0 C78.36 6.6 75.72 13.2 73 20 C75.31 18.35 77.62 16.7 80 15 C88.60685143 11.03489392 97.79881126 10.69841435 106.75 13.625 C112.91023176 16.1014308 117.32248528 19.48372792 121 25 C121.33 21.04 121.66 17.08 122 13 C123.83046875 13.01160156 125.6609375 13.02320313 127.546875 13.03515625 C129.94791565 13.04453532 132.3489574 13.05363539 134.75 13.0625 C136.55984375 13.07506836 136.55984375 13.07506836 138.40625 13.08789062 C139.56640625 13.09111328 140.7265625 13.09433594 141.921875 13.09765625 C142.99018555 13.10289307 144.05849609 13.10812988 145.15917969 13.11352539 C147.63969159 13.01439871 149.62898126 12.66554912 152 12 C153.74886981 11.93375493 155.50002748 11.91447405 157.25 11.9375 C158.14203125 11.94652344 159.0340625 11.95554688 159.953125 11.96484375 C160.62859375 11.97644531 161.3040625 11.98804688 162 12 C162.33 13.98 162.66 15.96 163 18 C164.010625 17.38125 165.02125 16.7625 166.0625 16.125 C175.65139287 10.75978613 186.43026847 10.56899045 197 13.3125 C200.90403103 14.46540916 204.38927878 16.12641355 208 18 C207.45859375 19.35544922 207.45859375 19.35544922 206.90625 20.73828125 C206.4421875 21.91777344 205.978125 23.09726563 205.5 24.3125 C205.0359375 25.48425781 204.571875 26.65601563 204.09375 27.86328125 C202.83537487 30.91846448 202.83537487 30.91846448 203 34 C203.20753906 33.35933594 203.41507813 32.71867187 203.62890625 32.05859375 C206.23069502 24.75399012 209.40305796 19.54695438 216.3125 15.71875 C224.87863028 11.77382158 233.61794501 10.38254556 242.8125 13.25 C250.59374585 16.24065677 256.75668901 21.19290501 260.3125 28.8125 C261.79921769 35.70546382 262.35772157 42.0605342 261 49 C259.02 49.33 257.04 49.66 255 50 C256.65 52.31 258.3 54.62 260 57 C254.67669817 63.2751505 249.30811405 67.3181627 240.93554688 68.22314453 C232.0164024 68.83686478 223.76338368 68.93542257 216 64 C215.0925 63.525625 214.185 63.05125 213.25 62.5625 C210.50347423 60.65519044 208.29353213 58.42459111 206 56 C205.773125 56.556875 205.54625 57.11375 205.3125 57.6875 C202.36515374 62.88044341 198.63507267 65.83854654 192.98046875 67.49609375 C180.00372284 69.69006521 166.55756147 68.55969705 155 62 C155.76570418 57.02742694 157.83127975 53.14320436 160.13671875 48.71875 C161.21533621 45.3218371 160.5795068 44.11209755 159 41 C158.63128912 39.34080104 158.28718326 37.6752357 158 36 C156.700625 36.12375 155.40125 36.2475 154.0625 36.375 C153.33160156 36.44460937 152.60070312 36.51421875 151.84765625 36.5859375 C151.23792969 36.72257812 150.62820313 36.85921875 150 37 C148.57732138 39.84535725 148.78028131 42.36218552 148.68359375 45.5390625 C148.64169922 46.84101563 148.59980469 48.14296875 148.55664062 49.484375 C148.51682701 50.86458045 148.47711478 52.24478883 148.4375 53.625 C148.39430593 55.01303415 148.35069135 56.40105528 148.30664062 57.7890625 C148.20028 61.19260256 148.09825286 64.59621778 148 68 C143.85418113 68.02886751 139.70838784 68.04675327 135.5625 68.0625 C134.37849609 68.07087891 133.19449219 68.07925781 131.97460938 68.08789062 C130.84990234 68.09111328 129.72519531 68.09433594 128.56640625 68.09765625 C127.00321655 68.10551147 127.00321655 68.10551147 125.40844727 68.11352539 C123 68 123 68 122 67 C121.54540142 64.34536879 121.29756762 61.67810862 121 59 C120.38125 59.7425 119.7625 60.485 119.125 61.25 C112.22027999 67.92646481 103.77995984 68.57862638 94.62109375 68.47241211 C86.03331049 68.14190493 78.88696047 65.79671458 72.53515625 59.8203125 C66.69921279 52.90033883 65.91343812 47.13438117 65 38 C60.71 47.9 56.42 57.8 52 68 C44.41 68 36.82 68 29 68 C24.30216799 58.06591947 19.83896701 48.08588775 15.625 37.9375 C15.06374541 36.59228831 14.50230064 35.24715594 13.94067383 33.90209961 C9.23724766 22.62447709 4.60527557 11.31805013 0 0 Z M117 49 C118.36983503 52.16115776 118.9890638 52.9927092 122 55 C122 53.02 122 51.04 122 49 C120.35 49 118.7 49 117 49 Z " fill="#999898" transform="translate(546,161)"/>
<path d="M0 0 C8.58 0 17.16 0 26 0 C26.33 9.57 26.66 19.14 27 29 C27.99 27.515 27.99 27.515 29 26 C29.66 26 30.32 26 31 26 C31.33 25.01 31.66 24.02 32 23 C40.1283193 17.12179484 49.08989579 14.9343974 59 16 C66.88238516 17.86465025 73.51909689 21.09267176 78.27734375 27.80078125 C81.81662673 33.68279247 82.13976175 38.52228477 82.0625 45.25 C82.05798828 45.99507812 82.05347656 46.74015625 82.04882812 47.5078125 C82.03709246 49.3385764 82.0191585 51.16929873 82 53 C79.69 53 77.38 53 75 53 C75.845625 53.9075 76.69125 54.815 77.5625 55.75 C79.98137058 58.69261464 79.98137058 58.69261464 80.125 61.0625 C77.05669433 66.34680421 72.82916054 69.20443128 67.20703125 71.26953125 C57.09101345 73.57366685 45.00172106 73.60678626 36 68 C32.30150501 65.34235726 29.53266072 62.79899108 27 59 C26.67 63.29 26.34 67.58 26 72 C20.44989917 72.07453648 14.90009414 72.12878399 9.34960938 72.16479492 C7.46414103 72.17981793 5.57870725 72.20024231 3.69335938 72.22631836 C0.9725691 72.26298863 -1.74775641 72.27979146 -4.46875 72.29296875 C-5.30241089 72.30845261 -6.13607178 72.32393646 -6.99499512 72.33988953 C-13.96913879 72.34186433 -20.42974648 70.99750942 -25.75 66.125 C-26.59498047 65.3515625 -26.59498047 65.3515625 -27.45703125 64.5625 C-29.48846861 62.50534824 -31.28822797 60.32800997 -33 58 C-33.49628906 58.60328125 -33.99257813 59.2065625 -34.50390625 59.828125 C-39.92827757 66.20973832 -44.45427979 70.68714398 -53 72 C-63.90428108 72.6414283 -72.98134102 72.69767863 -81.5625 65.3125 C-82.72105881 64.22169317 -83.87173703 63.1221144 -85 62 C-85.46148437 62.38671875 -85.92296875 62.7734375 -86.3984375 63.171875 C-96.73154773 71.42202625 -107.50580245 74.04486407 -120.69140625 72.59375 C-130.14914454 70.87972623 -137.23283866 67.76067616 -143.3125 60.1875 C-149.56340821 50.98477402 -151.94790519 42.04222722 -150.62890625 30.8515625 C-148.70719981 21.56530404 -144.38642395 14.06221856 -136.5625 8.5625 C-135.06280524 7.6717417 -133.54249651 6.81439501 -132 6 C-131.07960938 5.50886719 -131.07960938 5.50886719 -130.140625 5.0078125 C-119.96975649 0.44396125 -107.69434299 1.18815294 -97.4453125 4.93359375 C-90.6937341 7.89895265 -86.49464712 12.23730997 -82 18 C-85.36300841 22.30885453 -88.96081826 25.85594541 -93.1328125 29.38671875 C-94.83703768 30.85919783 -96.43024216 32.38636694 -98 34 C-100.82294128 32.80567869 -102.58675649 31.4881486 -104.9375 29.4375 C-107.98075835 27.01531478 -109.18944604 26.09294034 -113 26 C-116.58998091 26.68085845 -119.13297556 27.219678 -121.875 29.6875 C-124.13568478 34.33446316 -124.35740653 37.80864491 -122.875 42.75 C-120.79832785 46.34956506 -119.91010923 47.63996201 -116 49 C-111.69155735 49.40492882 -108.35456853 49.03759454 -104.86328125 46.36328125 C-103.14016085 44.64016085 -101.53554596 42.89104213 -100 41 C-96.92115427 42.74745298 -94.44038613 44.44510895 -92 47 C-91.90203125 46.2265625 -91.8040625 45.453125 -91.703125 44.65625 C-90.25152062 34.54507468 -88.13129187 28.03754578 -80.0859375 21.47265625 C-72.51597594 16.12832009 -64.02839725 15.3447131 -55 16 C-45.23690009 17.69418498 -38.64070508 22.94425085 -32 30 C-31.38125 28.96875 -30.7625 27.9375 -30.125 26.875 C-26.22794605 21.3811589 -19.68975008 17.14532686 -13 16 C-11.31441541 15.90946307 -9.62550664 15.86990797 -7.9375 15.875 C-7.08027344 15.87242187 -6.22304688 15.86984375 -5.33984375 15.8671875 C-3 16 -3 16 0 17 C0 11.39 0 5.78 0 0 Z M-65 40 C-65.3176246 41.91006306 -65.3176246 41.91006306 -65.25 44 C-65.25515625 44.70125 -65.2603125 45.4025 -65.265625 46.125 C-65.15705515 48.2435669 -65.15705515 48.2435669 -63 50 C-60.5 50.33333333 -60.5 50.33333333 -58 50 C-55.84294485 48.2435669 -55.84294485 48.2435669 -55.734375 46.125 C-55.73953125 45.42375 -55.7446875 44.7225 -55.75 44 C-55.74484375 43.29875 -55.7396875 42.5975 -55.734375 41.875 C-55.84294485 39.7564331 -55.84294485 39.7564331 -58 38 C-61.9674509 37.56530472 -61.9674509 37.56530472 -65 40 Z M-7.75 39.125 C-9.55775998 41.83663997 -9.33220081 43.81087222 -9 47 C-8.01 48.485 -8.01 48.485 -7 50 C-3.91634129 50.2502157 -3.91634129 50.2502157 -1 50 C0.90867846 45.06665748 0.90867846 45.06665748 -0.125 40.0625 C-0.74375 39.381875 -1.3625 38.70125 -2 38 C-5.78595012 37.63949494 -5.78595012 37.63949494 -7.75 39.125 Z " fill="#999999" transform="translate(476,157)"/>
<path d="M0 0 C0.41912201 9.94377275 0.73786724 19.88541267 0.93261909 29.83625317 C1.02615777 34.45872859 1.15267732 39.07512026 1.35791016 43.6940918 C2.75826238 76.05235833 2.75826238 76.05235833 -3.73535156 83.14306641 C-7.43744521 86.17837459 -11.41064854 88.2434183 -15.82183838 90.06484985 C-18.68625089 91.2946281 -21.02778077 92.99120366 -23.5 94.875 C-24.99922986 95.9177748 -26.49921094 96.9594705 -28 98 C-35.11712576 102.95756108 -42.17157228 107.99257754 -49.18896484 113.09008789 C-55.7702002 117.8598473 -62.42424356 122.52214852 -69.1015625 127.15625 C-73.62204603 130.30125746 -78.05003735 133.51981222 -82.38427734 136.91821289 C-84 138 -84 138 -86 138 C-86 151.53 -86 165.06 -86 179 C-90.94329149 174.76289301 -95.7841039 170.48326353 -100.54882812 166.05664062 C-104.42075423 162.47981532 -108.43691977 159.10855956 -112.50674438 155.76045227 C-117.69221202 151.41260835 -122.447477 146.68029834 -127.21484375 141.8828125 C-128.07058487 141.02565643 -128.92632599 140.16850037 -129.80799866 139.28536987 C-132.52020465 136.56760046 -135.2288983 133.84636109 -137.9375 131.125 C-139.78427369 129.27320658 -141.63127653 127.42164166 -143.47851562 125.5703125 C-147.98833201 121.04951565 -152.49527569 116.52587054 -157 112 C-155.84348828 108.53046485 -155.09844223 108.09866072 -152.16015625 106.1015625 C-151.35328369 105.54621826 -150.54641113 104.99087402 -149.71508789 104.41870117 C-148.83973389 103.82677979 -147.96437988 103.2348584 -147.0625 102.625 C-145.22831372 101.36452152 -143.39499818 100.10277516 -141.5625 98.83984375 C-140.63179687 98.20030762 -139.70109375 97.56077148 -138.7421875 96.90185547 C-134.63909211 94.05613671 -130.59923291 91.12624505 -126.5625 88.1875 C-120.55677539 83.82665538 -114.50115791 79.56094553 -108.3828125 75.359375 C-104.33257915 72.55555419 -100.35861831 69.64725463 -96.375 66.75 C-90.09166362 62.183097 -83.7400403 57.73645241 -77.3125 53.375 C-70.96537624 49.06627945 -64.71838542 44.65629005 -58.55517578 40.08886719 C-53.27776238 36.1827057 -47.92170375 32.3960674 -42.54858398 28.62304688 C-37.31130404 24.93994561 -32.11853273 21.1991938 -26.9375 17.4375 C-20.99525913 13.13405162 -15.02678378 8.87190976 -9 4.6875 C-8.32316162 4.21304443 -7.64632324 3.73858887 -6.94897461 3.24975586 C-2.23508996 0 -2.23508996 0 0 0 Z " fill="#4F00F4" transform="translate(162,88)"/>
<path d="M0 0 C3.42612401 1.48043477 5.67087107 3.41270339 8.30957031 6.03491211 C9.15013977 6.86594955 9.99070923 7.696987 10.85675049 8.5532074 C12.20383087 9.90165489 12.20383087 9.90165489 13.578125 11.27734375 C14.96798615 12.66077721 14.96798615 12.66077721 16.38592529 14.07215881 C18.34273579 16.02152075 20.2956423 17.97469623 22.24609375 19.93041992 C24.74846724 22.43860435 27.26205883 24.935203 29.7788887 27.4288702 C32.17722037 29.80895773 34.56454325 32.1999716 36.953125 34.58984375 C38.31235077 35.9352549 38.31235077 35.9352549 39.69903564 37.30784607 C40.94097687 38.55913048 40.94097687 38.55913048 42.20800781 39.83569336 C42.94206848 40.5691246 43.67612915 41.30255585 44.43243408 42.05821228 C46 44 46 44 46 47 C43.58266767 48.92774604 41.18674223 50.6576138 38.625 52.375 C37.0512868 53.45587244 35.47839572 54.53794265 33.90625 55.62109375 C33.0915625 56.17909668 32.276875 56.73709961 31.4375 57.31201172 C27.61953382 59.95598389 23.87569528 62.69938455 20.125 65.4375 C13.98606364 69.89745659 7.77744936 74.23743938 1.5 78.5 C-7.80141929 84.81835719 -16.91372264 91.37732566 -26 98 C-35.12443239 104.65048423 -44.27681378 111.22894318 -53.625 117.5625 C-60.27802378 122.07038994 -66.75341174 126.75140521 -73.1484375 131.61694336 C-78.36109907 135.56626573 -83.6994634 139.29787832 -89.10839844 142.97241211 C-94.38740701 146.56059069 -99.58609761 150.25052717 -104.74853516 154.00439453 C-108.89488404 157 -108.89488404 157 -110 157 C-110.39557116 146.90837147 -110.69675085 136.81861134 -110.88080692 126.72078323 C-110.96919973 122.03029125 -111.08880791 117.34513445 -111.2824707 112.65771484 C-112.60577104 79.77993076 -112.60577104 79.77993076 -106.43676758 73.01538086 C-102.99478633 70.23549404 -99.3853167 68.4878458 -95.2562561 66.95466614 C-91.2899369 65.27643882 -87.98876758 62.63564404 -84.5625 60.0625 C-83.77472168 59.50747803 -82.98694336 58.95245605 -82.17529297 58.38061523 C-77.15309606 54.83125524 -72.16582575 51.23555212 -67.1875 47.625 C-60.00061842 42.41316317 -52.74497225 37.30692209 -45.46166992 32.23095703 C-39.20184612 27.8607657 -33.00577425 23.40907307 -26.82861328 18.9230957 C-17.96614827 12.50140519 -8.98304613 6.25135132 0 0 Z " fill="#E500FF" transform="translate(256,153)"/>
<path d="M0 0 C5.28 0 10.56 0 16 0 C16 20.46 16 40.92 16 62 C11.05 62 6.1 62 1 62 C0.67 61.01 0.34 60.02 0 59 C-0.7425 59.474375 -1.485 59.94875 -2.25 60.4375 C-7.26969636 63.2896002 -12.31658097 63.64712197 -18 63 C-24.69080279 61.06188923 -29.05810462 56.57980204 -33 51 C-36.06408921 45.00504286 -35.89389681 37.73081482 -34.34765625 31.27734375 C-31.92777795 24.39159562 -28.23960224 20.08047935 -21.68359375 16.86328125 C-18.5142009 15.84372401 -15.82662146 15.69915872 -12.5 15.6875 C-11.3965625 15.67074219 -10.293125 15.65398437 -9.15625 15.63671875 C-6 16 -6 16 -1 19 C-0.67 12.73 -0.34 6.46 0 0 Z M-12.75 34.125 C-14.55775998 36.83663997 -14.33220081 38.81087222 -14 42 C-13.01 43.485 -13.01 43.485 -12 45 C-8.91634129 45.2502157 -8.91634129 45.2502157 -6 45 C-4.09132154 40.06665748 -4.09132154 40.06665748 -5.125 35.0625 C-5.74375 34.381875 -6.3625 33.70125 -7 33 C-10.78595012 32.63949494 -10.78595012 32.63949494 -12.75 34.125 Z " fill="#191717" transform="translate(481,162)"/>
<path d="M0 0 C5.13706645 3.82159336 8.85831604 8.15074342 10.08984375 14.5546875 C11.01264542 22.54387452 10.01294192 29.03243912 5.08984375 35.5546875 C-1.4254752 41.4367418 -8.84062376 44.04254893 -17.58203125 43.8046875 C-25.38437125 42.96685233 -32.37654284 39.75029431 -37.453125 33.72265625 C-41.79921724 27.16090914 -42.0284142 20.20212895 -40.91015625 12.5546875 C-38.3568751 5.63053522 -33.09452912 1.51951331 -26.97265625 -2.2578125 C-18.39455527 -5.55561577 -7.82942473 -4.61167447 0 0 Z M-19.91015625 15.5546875 C-20.22778085 17.46475056 -20.22778085 17.46475056 -20.16015625 19.5546875 C-20.1653125 20.2559375 -20.17046875 20.9571875 -20.17578125 21.6796875 C-20.0672114 23.7982544 -20.0672114 23.7982544 -17.91015625 25.5546875 C-15.41015625 25.88802083 -15.41015625 25.88802083 -12.91015625 25.5546875 C-10.7531011 23.7982544 -10.7531011 23.7982544 -10.64453125 21.6796875 C-10.6496875 20.9784375 -10.65484375 20.2771875 -10.66015625 19.5546875 C-10.655 18.8534375 -10.64984375 18.1521875 -10.64453125 17.4296875 C-10.7531011 15.3111206 -10.7531011 15.3111206 -12.91015625 13.5546875 C-16.87760715 13.11999222 -16.87760715 13.11999222 -19.91015625 15.5546875 Z " fill="#1A1818" transform="translate(430.91015625,181.4453125)"/>
<path d="M0 0 C5.94 0 11.88 0 18 0 C21.87081084 8.13862793 25.44921271 16.35311186 28.875 24.6875 C29.28032959 25.66799316 29.68565918 26.64848633 30.10327148 27.65869141 C30.47911377 28.57956543 30.85495605 29.50043945 31.2421875 30.44921875 C31.5810498 31.27768311 31.91991211 32.10614746 32.26904297 32.9597168 C33 35 33 35 33 37 C33.66 37 34.32 37 35 37 C35.36738281 35.81535156 35.73476563 34.63070312 36.11328125 33.41015625 C38.38834029 26.58497912 41.3239488 20.03028821 44.1875 13.4375 C44.75229278 12.12970392 45.31674848 10.82176222 45.88085938 9.51367188 C47.24941558 6.34047034 48.62482269 3.17037002 50 0 C55.28 0 60.56 0 66 0 C65.20437164 3.97814178 64.34269495 6.86704511 62.77514648 10.5246582 C62.31474472 11.60540115 61.85434296 12.6861441 61.37998962 13.79963684 C60.88205399 14.9550145 60.38411835 16.11039215 59.87109375 17.30078125 C59.36199966 18.49229294 58.85290558 19.68380463 58.3283844 20.91142273 C56.97961985 24.06799608 55.62512882 27.22208014 54.26940918 30.37567139 C52.88510707 33.59856638 51.50626434 36.82379483 50.12695312 40.04882812 C47.42329076 46.36817483 44.71306616 52.68468497 42 59 C36.39 59 30.78 59 25 59 C18.81295671 45.10085064 12.75529066 31.1563558 6.875 17.125 C6.58783112 16.44065887 6.30066223 15.75631775 6.00479126 15.05123901 C1.18831585 3.56494755 1.18831585 3.56494755 0 0 Z " fill="#1A1818" transform="translate(553,165)"/>
<path d="M0 0 C2.53046969 1.87273028 4.7171007 3.81635719 7 6 C5.61811547 9.21043882 4.07578097 11.04936365 1.375 13.25 C0.74335938 13.77078125 0.11171875 14.2915625 -0.5390625 14.828125 C-1.02117187 15.21484375 -1.50328125 15.6015625 -2 16 C-4.38665643 14.81183771 -6.75938652 13.60511901 -9.125 12.375 C-13.66950562 10.46923958 -18.15238906 10.28005778 -23 11 C-27.54833604 13.23281951 -29.75696273 15.51392546 -32 20 C-32.86295756 26.28605362 -32.92123849 32.77168201 -29 38 C-25.32967674 41.4868071 -22.42369158 42.28363464 -17.5 42.4375 C-12.97143014 42.27159581 -9.87998299 41.46047702 -6 39 C-4.68 38.34 -3.36 37.68 -2 37 C2.455 40.96 2.455 40.96 7 45 C3.71165483 51.57669033 -1.00044043 53.93233602 -7.76953125 56.234375 C-17.38495658 58.51324243 -27.4087235 58.11530067 -36 53 C-43.51602125 47.99374557 -47.18480837 41.4455749 -50 33 C-51.0552137 22.96879132 -49.7751228 15.36309173 -44 7 C-33.42695511 -5.22431297 -13.84536989 -8.24724199 0 0 Z " fill="#1A1818" transform="translate(380,168)"/>
<path d="M0 0 C2.72342732 0.53318539 4.02136633 1.49400537 6.03515625 3.3984375 C6.48925781 5.75854492 6.48925781 5.75854492 6.42578125 8.50390625 C6.41289063 9.48681641 6.4 10.46972656 6.38671875 11.48242188 C6.35320313 12.50658203 6.3196875 13.53074219 6.28515625 14.5859375 C6.26710938 15.62169922 6.2490625 16.65746094 6.23046875 17.72460938 C6.18330062 20.28348034 6.11749682 22.84049592 6.03515625 25.3984375 C6.65036133 25.37749023 7.26556641 25.35654297 7.89941406 25.33496094 C10.69449434 25.25166733 13.4893134 25.19973737 16.28515625 25.1484375 C17.73728516 25.09816406 17.73728516 25.09816406 19.21875 25.046875 C26.35859476 24.94839438 26.35859476 24.94839438 29.68359375 27.16015625 C31.90603377 30.84067108 31.44050947 33.14222867 31.03515625 37.3984375 C30.37515625 38.3884375 29.71515625 39.3784375 29.03515625 40.3984375 C26.69677734 40.73901367 26.69677734 40.73901367 23.80859375 40.69140625 C22.77734375 40.68173828 21.74609375 40.67207031 20.68359375 40.66210938 C19.60335937 40.63697266 18.523125 40.61183594 17.41015625 40.5859375 C16.3221875 40.57240234 15.23421875 40.55886719 14.11328125 40.54492188 C11.42008216 40.50948504 8.72786251 40.46008081 6.03515625 40.3984375 C6.0508667 41.04917236 6.06657715 41.69990723 6.08276367 42.37036133 C6.14510274 45.31713174 6.18414309 48.26376348 6.22265625 51.2109375 C6.24779297 52.23509766 6.27292969 53.25925781 6.29882812 54.31445312 C6.30849609 55.29736328 6.31816406 56.28027344 6.328125 57.29296875 C6.34383545 58.19893799 6.3595459 59.10490723 6.37573242 60.03833008 C6.03515625 62.3984375 6.03515625 62.3984375 4.66748047 64.19482422 C2.39327023 65.87173964 0.7685676 65.76446747 -2.02734375 65.7109375 C-3.34412109 65.70513672 -3.34412109 65.70513672 -4.6875 65.69921875 C-6.96484375 65.3984375 -6.96484375 65.3984375 -8.96484375 63.3984375 C-9.19189453 61.06005859 -9.19189453 61.06005859 -9.16015625 58.171875 C-9.15371094 57.140625 -9.14726563 56.109375 -9.140625 55.046875 C-9.12386719 53.96664062 -9.10710938 52.88640625 -9.08984375 51.7734375 C-9.08082031 50.68546875 -9.07179688 49.5975 -9.0625 48.4765625 C-9.03887784 45.78363598 -9.00593931 43.09114495 -8.96484375 40.3984375 C-9.99424072 40.41414795 -9.99424072 40.41414795 -11.04443359 40.43017578 C-14.14286664 40.47165624 -17.24124136 40.49773819 -20.33984375 40.5234375 C-21.42007813 40.54019531 -22.5003125 40.55695313 -23.61328125 40.57421875 C-24.64453125 40.58066406 -25.67578125 40.58710938 -26.73828125 40.59375 C-28.16793213 40.60946045 -28.16793213 40.60946045 -29.62646484 40.62548828 C-31.96484375 40.3984375 -31.96484375 40.3984375 -33.96484375 38.3984375 C-34.265625 36.12109375 -34.265625 36.12109375 -34.27734375 33.4609375 C-34.29410156 32.58566406 -34.31085937 31.71039063 -34.328125 30.80859375 C-33.88549652 27.87201554 -33.30279592 27.17843316 -30.96484375 25.3984375 C-28.60473633 25.05786133 -28.60473633 25.05786133 -25.859375 25.10546875 C-24.87646484 25.11513672 -23.89355469 25.12480469 -22.88085938 25.13476562 C-21.85669922 25.15990234 -20.83253906 25.18503906 -19.77734375 25.2109375 C-18.74158203 25.22447266 -17.70582031 25.23800781 -16.63867188 25.25195312 C-14.08020676 25.28732361 -11.52278595 25.33668206 -8.96484375 25.3984375 C-8.9805542 24.74770264 -8.99626465 24.09696777 -9.01245117 23.42651367 C-9.07479024 20.47974326 -9.11383059 17.53311152 -9.15234375 14.5859375 C-9.17748047 13.56177734 -9.20261719 12.53761719 -9.22851562 11.48242188 C-9.23818359 10.49951172 -9.24785156 9.51660156 -9.2578125 8.50390625 C-9.27352295 7.59793701 -9.2892334 6.69196777 -9.30541992 5.75854492 C-8.96484375 3.3984375 -8.96484375 3.3984375 -7.69262695 1.6027832 C-5.25742871 -0.09466387 -2.89718269 0.03349344 0 0 Z " fill="#989898" transform="translate(843.96484375,133.6015625)"/>
<path d="M0 0 C6.67901788 3.52572691 10.78051958 9.28584087 13 16.4375 C13 19.4075 13 22.3775 13 25.4375 C2.11 25.4375 -8.78 25.4375 -20 25.4375 C-17.67748574 30.32245525 -17.67748574 30.32245525 -15 31.4375 C-9.03467051 31.85663263 -3.56843461 31.84547172 2 29.4375 C4.31 31.7475 6.62 34.0575 9 36.4375 C6.74668275 40.9441345 6.74668275 40.9441345 3.0625 42.625 C2.37285156 42.94855469 1.68320312 43.27210938 0.97265625 43.60546875 C-6.16060728 46.61415218 -14.06867595 46.49004846 -21.3125 43.8125 C-27.93103694 40.75288742 -32.42635328 37.39221126 -35.4375 30.625 C-37.86878712 23.55312571 -38.04247825 18.14972186 -35 11.25 C-28.14583816 -1.27052858 -13.05466964 -5.17302385 0 0 Z " fill="#1A1818" transform="translate(653,179.5625)"/>
<path d="M0 0 C6.67901788 3.52572691 10.78051958 9.28584087 13 16.4375 C13 19.4075 13 22.3775 13 25.4375 C2.11 25.4375 -8.78 25.4375 -20 25.4375 C-17.67748574 30.32245525 -17.67748574 30.32245525 -15 31.4375 C-9.03467051 31.85663263 -3.56843461 31.84547172 2 29.4375 C4.31 31.7475 6.62 34.0575 9 36.4375 C6.74668275 40.9441345 6.74668275 40.9441345 3.0625 42.625 C2.37285156 42.94855469 1.68320312 43.27210938 0.97265625 43.60546875 C-6.16060728 46.61415218 -14.06867595 46.49004846 -21.3125 43.8125 C-27.93103694 40.75288742 -32.42635328 37.39221126 -35.4375 30.625 C-37.86878712 23.55312571 -38.04247825 18.14972186 -35 11.25 C-28.14583816 -1.27052858 -13.05466964 -5.17302385 0 0 Z " fill="#1A1818" transform="translate(541,179.5625)"/>
<path d="M0 0 C5.09134463 3.12372891 8.87440768 7.81423878 11.9375 12.875 C12.82014301 16.99400073 12.5 21.28749176 12.5 25.5 C1.61 25.5 -9.28 25.5 -20.5 25.5 C-18.17748574 30.38495525 -18.17748574 30.38495525 -15.5 31.5 C-13.56539059 31.6228777 -11.62597096 31.67554888 -9.6875 31.6875 C-8.64980469 31.70167969 -7.61210938 31.71585938 -6.54296875 31.73046875 C-3.46229467 31.49714427 -1.28238408 30.80118886 1.5 29.5 C3.81 31.81 6.12 34.12 8.5 36.5 C6.24668275 41.0066345 6.24668275 41.0066345 2.5625 42.6875 C1.87285156 43.01105469 1.18320312 43.33460938 0.47265625 43.66796875 C-6.70249232 46.69431854 -14.60794835 46.54729334 -21.875 43.8125 C-27.70099363 41.14225292 -32.74044401 37.7057688 -35.8046875 31.84765625 C-37.80766238 25.08480285 -37.82492793 16.47014584 -35 9.9375 C-28.06846501 -1.3848294 -11.92173781 -5.29334528 0 0 Z " fill="#1A1818" transform="translate(790.5,179.5)"/>
<path d="M0 0 C0.7437085 0.00580078 1.48741699 0.01160156 2.25366211 0.01757812 C7.86591205 0.1500206 12.44645805 1.1152726 17.625 3.375 C17.11464169 7.7640815 16.10285723 10.71208062 13.625 14.375 C12.696875 14.045 11.76875 13.715 10.8125 13.375 C5.81595127 11.91510305 0.7816642 12.20715198 -4.375 12.375 C-4.705 13.695 -5.035 15.015 -5.375 16.375 C-3.51294922 16.75591797 -3.51294922 16.75591797 -1.61328125 17.14453125 C0.0287483 17.49170321 1.67066981 17.83938643 3.3125 18.1875 C4.12912109 18.35314453 4.94574219 18.51878906 5.78710938 18.68945312 C11.71658813 19.96177043 16.11021266 21.102819 19.625 26.375 C20.35676768 31.31868632 20.14745588 35.31073801 17.9375 39.8125 C13.5123061 44.71609324 8.14572292 47.0269953 1.58203125 47.67578125 C-5.88355195 47.7036033 -12.30052032 46.75370135 -19.375 44.375 C-20.365 44.045 -21.355 43.715 -22.375 43.375 C-21.76801257 39.24748551 -20.33689209 36.0428852 -18.375 32.375 C-15.61223823 32.89768466 -13.0489124 33.48369587 -10.375 34.375 C-7.98009014 34.44470052 -5.58332309 34.45948003 -3.1875 34.4375 C-1.91519531 34.42847656 -0.64289062 34.41945312 0.66796875 34.41015625 C1.64378906 34.39855469 2.61960937 34.38695312 3.625 34.375 C3.955 33.055 4.285 31.735 4.625 30.375 C3.53960938 30.26542969 2.45421875 30.15585938 1.3359375 30.04296875 C-0.10944152 29.88341392 -1.55475051 29.72322389 -3 29.5625 C-3.71285156 29.49224609 -4.42570313 29.42199219 -5.16015625 29.34960938 C-10.90935715 28.69029735 -15.29344168 27.18266906 -19.75 23.3125 C-22.14612791 18.98103801 -22.36264351 15.20766784 -21.375 10.375 C-18.82832964 5.5426255 -15.39053192 3.00022663 -10.33520508 0.96166992 C-6.90163724 -0.06596285 -3.56023901 -0.06730282 0 0 Z " fill="#1A1818" transform="translate(729.375,177.625)"/>
<path d="M0 0 C5.28 0 10.56 0 16 0 C16 1.32 16 2.64 16 4 C16.99 3.34 17.98 2.68 19 2 C23.1507982 -0.41068853 26.27319955 -0.33170529 31 0 C31 4.62 31 9.24 31 14 C28.81901042 14.09765625 26.63802083 14.1953125 24.45703125 14.29296875 C20.56361872 15.4133307 19.31730505 16.62059681 17 20 C16.2407934 24.43320388 16.20923778 28.82244017 16.1875 33.3125 C16.16236328 34.53001953 16.13722656 35.74753906 16.11132812 37.00195312 C16.05252416 40.00095519 16.02338367 43.00051263 16 46 C10.72 46 5.44 46 0 46 C0 30.82 0 15.64 0 0 Z " fill="#1B1919" transform="translate(673,178)"/>
<path d="M0 0 C1.65 0 3.3 0 5 0 C5.33 7.92 5.66 15.84 6 24 C13.92 24.33 21.84 24.66 30 25 C30 26.98 30 28.96 30 31 C22.08 31.33 14.16 31.66 6 32 C5.67 39.59 5.34 47.18 5 55 C3.02 55 1.04 55 -1 55 C-1 47.08 -1 39.16 -1 31 C-8.92 31 -16.84 31 -25 31 C-25 29.02 -25 27.04 -25 25 C-17.41 24.67 -9.82 24.34 -2 24 C-1.71073084 16.47590193 -1.71073084 16.47590193 -1.43188477 8.95141602 C-1.39377686 8.01998779 -1.35566895 7.08855957 -1.31640625 6.12890625 C-1.27974854 5.17056885 -1.24309082 4.21223145 -1.20532227 3.22485352 C-1 1 -1 1 0 0 Z " fill="#0E0E0E" transform="translate(840,139)"/>
<path d="M0 0 C7.87742959 6.75208251 7.87742959 6.75208251 11.33203125 10.015625 C12.06744141 10.70914063 12.80285156 11.40265625 13.56054688 12.1171875 C14.30369141 12.82101563 15.04683594 13.52484375 15.8125 14.25 C16.57498047 14.96929687 17.33746094 15.68859375 18.12304688 16.4296875 C23.62797619 21.62797619 23.62797619 21.62797619 26 24 C25.81640625 25.97705078 25.81640625 25.97705078 25 28 C22.69280736 29.78336574 20.46107154 31.33690415 18 32.875 C16.63278008 33.75515798 15.26559251 34.6353662 13.8984375 35.515625 C13.23166992 35.93908203 12.56490234 36.36253906 11.87792969 36.79882812 C9.43057262 38.36422032 7.0276892 39.99210442 4.625 41.625 C1.12154696 44 1.12154696 44 0 44 C0 29.48 0 14.96 0 0 Z " fill="#A900CE" transform="translate(230,126)"/>
<path d="M0 0 C0 13.53 0 27.06 0 41 C-4.43741295 37.19650319 -8.82745546 33.39101539 -13.125 29.4375 C-13.62386719 28.98181641 -14.12273438 28.52613281 -14.63671875 28.05664062 C-17.84250184 25.11451854 -20.94389077 22.09529012 -24 19 C-22.58036833 15.58084145 -20.98119443 13.95760425 -17.97265625 11.8359375 C-17.18052734 11.27132812 -16.38839844 10.70671875 -15.57226562 10.125 C-14.74404297 9.5475 -13.91582031 8.97 -13.0625 8.375 C-12.23814453 7.78976563 -11.41378906 7.20453125 -10.56445312 6.6015625 C-1.24504551 0 -1.24504551 0 0 0 Z " fill="#3601B1" transform="translate(76,226)"/>
<path d="M0 0 C2.50160818 1.87620613 3.61945652 3.23891303 5 6 C5.55512815 10.63213493 5.6364242 13.98172127 3.125 18 C0.38262878 20.58105526 -0.51262207 20.95402095 -4.3125 21.3125 C-8.58777346 20.95018869 -10.04827827 20.03853708 -13 17 C-14.61311743 12.16064772 -14.55471929 8.36158371 -12.625 3.625 C-9.67979631 -1.13263673 -5.17270763 -0.69030796 0 0 Z M-9 6 C-9.3176246 7.91006306 -9.3176246 7.91006306 -9.25 10 C-9.25515625 10.70125 -9.2603125 11.4025 -9.265625 12.125 C-9.15705515 14.2435669 -9.15705515 14.2435669 -7 16 C-4.5 16.33333333 -4.5 16.33333333 -2 16 C0.15705515 14.2435669 0.15705515 14.2435669 0.265625 12.125 C0.26046875 11.42375 0.2553125 10.7225 0.25 10 C0.25515625 9.29875 0.2603125 8.5975 0.265625 7.875 C0.15705515 5.7564331 0.15705515 5.7564331 -2 4 C-5.9674509 3.56530472 -5.9674509 3.56530472 -9 6 Z " fill="#979797" transform="translate(420,191)"/>
<path d="M0 0 C2.16015625 0.50390625 2.16015625 0.50390625 5.22265625 2.37890625 C7.94141282 6.7639975 8.07773002 10.46965018 7.16015625 15.50390625 C5.36368771 18.4381382 4.21604915 19.9759598 1.16015625 21.50390625 C-2.15234375 21.87890625 -2.15234375 21.87890625 -5.83984375 21.50390625 C-10.10913289 18.06991281 -11.59940879 15.62774839 -12.21484375 10.19140625 C-11.44538361 2.62504821 -7.28905928 -0.57192953 0 0 Z M-5.58984375 5.62890625 C-7.39760373 8.34054622 -7.17204456 10.31477847 -6.83984375 13.50390625 C-5.84984375 14.98890625 -5.84984375 14.98890625 -4.83984375 16.50390625 C-1.75618504 16.75412195 -1.75618504 16.75412195 1.16015625 16.50390625 C3.06883471 11.57056373 3.06883471 11.57056373 2.03515625 6.56640625 C1.41640625 5.88578125 0.79765625 5.20515625 0.16015625 4.50390625 C-3.62579387 4.14340119 -3.62579387 4.14340119 -5.58984375 5.62890625 Z " fill="#969696" transform="translate(473.83984375,190.49609375)"/>
<path d="M0 0 C2.5625 2.4375 2.5625 2.4375 4 5 C4 5.66 4 6.32 4 7 C-2.27 7 -8.54 7 -15 7 C-11.82991897 -0.92520257 -8.1016141 -2.48251294 0 0 Z " fill="#939393" transform="translate(647,190)"/>
<path d="M0 0 C2.5625 2.4375 2.5625 2.4375 4 5 C4 5.66 4 6.32 4 7 C-2.27 7 -8.54 7 -15 7 C-11.82991897 -0.92520257 -8.1016141 -2.48251294 0 0 Z " fill="#939393" transform="translate(535,190)"/>
<path d="M0 0 C4.01885656 2.44626051 4.83594603 3.34378411 6 8 C0.06 8 -5.88 8 -12 8 C-11 3 -11 3 -9.375 1.1875 C-6.01623433 -0.49188284 -3.71022229 -0.45564133 0 0 Z " fill="#949393" transform="translate(782,189)"/>
</svg>
