<?xml version="1.0" encoding="UTF-8"?>
<svg version="1.1" xmlns="http://www.w3.org/2000/svg" width="1000" height="400">
<path d="M0 0 C0.41912201 9.94377275 0.73786724 19.88541267 0.93261909 29.83625317 C1.02615777 34.45872859 1.15267732 39.07512026 1.35791016 43.6940918 C2.75826238 76.05235833 2.75826238 76.05235833 -3.73535156 83.14306641 C-7.43744521 86.17837459 -11.41064854 88.2434183 -15.82183838 90.06484985 C-18.68625089 91.2946281 -21.02778077 92.99120366 -23.5 94.875 C-24.99922986 95.9177748 -26.49921094 96.9594705 -28 98 C-35.11712576 102.95756108 -42.17157228 107.99257754 -49.18896484 113.09008789 C-55.7702002 117.8598473 -62.42424356 122.52214852 -69.1015625 127.15625 C-73.62204603 130.30125746 -78.05003735 133.51981222 -82.38427734 136.91821289 C-84 138 -84 138 -86 138 C-86 151.53 -86 165.06 -86 179 C-90.94329149 174.76289301 -95.7841039 170.48326353 -100.54882812 166.05664062 C-104.42075423 162.47981532 -108.43691977 159.10855956 -112.50674438 155.76045227 C-117.69221202 151.41260835 -122.447477 146.68029834 -127.21484375 141.8828125 C-128.07058487 141.02565643 -128.92632599 140.16850037 -129.80799866 139.28536987 C-132.52020465 136.56760046 -135.2288983 133.84636109 -137.9375 131.125 C-139.78427369 129.27320658 -141.63127653 127.42164166 -143.47851562 125.5703125 C-147.98833201 121.04951565 -152.49527569 116.52587054 -157 112 C-155.84348828 108.53046485 -155.09844223 108.09866072 -152.16015625 106.1015625 C-151.35328369 105.54621826 -150.54641113 104.99087402 -149.71508789 104.41870117 C-148.83973389 103.82677979 -147.96437988 103.2348584 -147.0625 102.625 C-145.22831372 101.36452152 -143.39499818 100.10277516 -141.5625 98.83984375 C-140.63179687 98.20030762 -139.70109375 97.56077148 -138.7421875 96.90185547 C-134.63909211 94.05613671 -130.59923291 91.12624505 -126.5625 88.1875 C-120.55677539 83.82665538 -114.50115791 79.56094553 -108.3828125 75.359375 C-104.33257915 72.55555419 -100.35861831 69.64725463 -96.375 66.75 C-90.09166362 62.183097 -83.7400403 57.73645241 -77.3125 53.375 C-70.96537624 49.06627945 -64.71838542 44.65629005 -58.55517578 40.08886719 C-53.27776238 36.1827057 -47.92170375 32.3960674 -42.54858398 28.62304688 C-37.31130404 24.93994561 -32.11853273 21.1991938 -26.9375 17.4375 C-20.99525913 13.13405162 -15.02678378 8.87190976 -9 4.6875 C-8.32316162 4.21304443 -7.64632324 3.73858887 -6.94897461 3.24975586 C-2.23508996 0 -2.23508996 0 0 0 Z " fill="#4F00F4" transform="translate(162,88)"/>
<path d="M0 0 C3.42612401 1.48043477 5.67087107 3.41270339 8.30957031 6.03491211 C9.15013977 6.86594955 9.99070923 7.696987 10.85675049 8.5532074 C12.20383087 9.90165489 12.20383087 9.90165489 13.578125 11.27734375 C14.96798615 12.66077721 14.96798615 12.66077721 16.38592529 14.07215881 C18.34273579 16.02152075 20.2956423 17.97469623 22.24609375 19.93041992 C24.74846724 22.43860435 27.26205883 24.935203 29.7788887 27.4288702 C32.17722037 29.80895773 34.56454325 32.1999716 36.953125 34.58984375 C38.31235077 35.9352549 38.31235077 35.9352549 39.69903564 37.30784607 C40.94097687 38.55913048 40.94097687 38.55913048 42.20800781 39.83569336 C42.94206848 40.5691246 43.67612915 41.30255585 44.43243408 42.05821228 C46 44 46 44 46 47 C43.58266767 48.92774604 41.18674223 50.6576138 38.625 52.375 C37.0512868 53.45587244 35.47839572 54.53794265 33.90625 55.62109375 C33.0915625 56.17909668 32.276875 56.73709961 31.4375 57.31201172 C27.61953382 59.95598389 23.87569528 62.69938455 20.125 65.4375 C13.98606364 69.89745659 7.77744936 74.23743938 1.5 78.5 C-7.80141929 84.81835719 -16.91372264 91.37732566 -26 98 C-35.12443239 104.65048423 -44.27681378 111.22894318 -53.625 117.5625 C-60.27802378 122.07038994 -66.75341174 126.75140521 -73.1484375 131.61694336 C-78.36109907 135.56626573 -83.6994634 139.29787832 -89.10839844 142.97241211 C-94.38740701 146.56059069 -99.58609761 150.25052717 -104.74853516 154.00439453 C-108.89488404 157 -108.89488404 157 -110 157 C-110.39557116 146.90837147 -110.69675085 136.81861134 -110.88080692 126.72078323 C-110.96919973 122.03029125 -111.08880791 117.34513445 -111.2824707 112.65771484 C-112.60577104 79.77993076 -112.60577104 79.77993076 -106.43676758 73.01538086 C-102.99478633 70.23549404 -99.3853167 68.4878458 -95.2562561 66.95466614 C-91.2899369 65.27643882 -87.98876758 62.63564404 -84.5625 60.0625 C-83.77472168 59.50747803 -82.98694336 58.95245605 -82.17529297 58.38061523 C-77.15309606 54.83125524 -72.16582575 51.23555212 -67.1875 47.625 C-60.00061842 42.41316317 -52.74497225 37.30692209 -45.46166992 32.23095703 C-39.20184612 27.8607657 -33.00577425 23.40907307 -26.82861328 18.9230957 C-17.96614827 12.50140519 -8.98304613 6.25135132 0 0 Z " fill="#E500FF" transform="translate(256,153)"/>
<path d="M0 0 C5.61 0 11.22 0 17 0 C17 20.79 17 41.58 17 63 C11.39 63 5.78 63 0 63 C0 62.34 0 61.68 0 61 C-0.721875 61.495 -1.44375 61.99 -2.1875 62.5 C-7.9171252 65.34439826 -15.36166744 64.9906643 -21.41015625 63.34375 C-27.16874345 60.76958385 -31.2932406 56.343378 -34.140625 50.765625 C-36.24957609 43.97863694 -36.37330698 33.92258006 -33.5 27.375 C-30.17071807 22.05756031 -25.19039001 18.84541369 -19.4375 16.625 C-11.86940831 15.24898333 -8.55313569 16.16757411 -1 19 C-0.67 12.73 -0.34 6.46 0 0 Z M-17 34 C-18.74034499 37.48068998 -18.58371457 41.20257598 -18 45 C-15.72272176 48.12312444 -14.07261333 49.57095467 -10.5 51 C-7.11779617 51 -5.64177356 50.08561071 -3 48 C-0.87261862 45.28575479 -0.07090439 43.4760723 0.4375 40.0625 C-0.11606323 36.1875574 -1.59173531 34.04574652 -4 31 C-9.2981842 28.3509079 -13.0084938 30.12253683 -17 34 Z " fill="#FFFFFF" transform="translate(481,161)"/>
<path d="M0 0 C3.37650738 2.11432151 6.17982979 4.53546219 9.05859375 7.2890625 C7.61077582 10.73334515 5.78164766 12.65037212 2.93359375 15.0390625 C2.20914063 15.65265625 1.4846875 16.26625 0.73828125 16.8984375 C0.18398438 17.35734375 -0.3703125 17.81625 -0.94140625 18.2890625 C-3.16286843 17.21099997 -5.15715177 16.13923922 -7.19140625 14.7265625 C-11.44266919 12.50431142 -15.41463999 11.81672688 -20.09375 12.69140625 C-24.02880039 13.92981131 -25.71666672 15.01246 -28.37890625 18.2890625 C-30.76921824 22.87846151 -31.36459953 26.12610448 -30.94140625 31.2890625 C-29.30749546 35.90295566 -27.3636229 39.86397595 -22.94140625 42.2890625 C-19.19037442 43.53940644 -15.82844575 43.9403668 -11.94140625 43.2890625 C-9.73146414 42.1461268 -7.79577291 40.86669059 -5.80078125 39.3828125 C-3.94140625 38.2890625 -3.94140625 38.2890625 0.05859375 38.2890625 C2.41796875 40.0390625 2.41796875 40.0390625 4.80859375 42.2890625 C5.6078125 43.0315625 6.40703125 43.7740625 7.23046875 44.5390625 C7.83375 45.1165625 8.43703125 45.6940625 9.05859375 46.2890625 C6.91926733 51.1925681 3.66476478 53.69536682 -0.94140625 56.2890625 C-10.53950231 59.75003816 -20.19516674 60.65594524 -29.94140625 57.2890625 C-37.69806006 53.6160933 -43.91356014 49.30164461 -47.19140625 41.19921875 C-50.49026285 31.19955968 -50.85102044 23.16014514 -46.94140625 13.2890625 C-37.6390821 -2.6577789 -16.57491011 -7.98583191 0 0 Z " fill="#FFFFFF" transform="translate(378.94140625,166.7109375)"/>
<path d="M0 0 C6.27 0 12.54 0 19 0 C20.99884518 4.64272587 22.99432579 9.28661002 24.98144531 13.93432617 C25.65853845 15.51523802 26.33756476 17.09532335 27.01855469 18.67456055 C27.99662605 20.94365758 28.96772426 23.21562865 29.9375 25.48828125 C30.24373291 26.19463211 30.54996582 26.90098297 30.86547852 27.6287384 C32.11978564 30.58430547 33 32.75435304 33 36 C33.66 36 34.32 36 35 36 C35.10505859 35.31969727 35.21011719 34.63939453 35.31835938 33.93847656 C36.13150942 30.43307757 37.46279301 27.26422186 38.90625 23.984375 C39.19101196 23.32794006 39.47577393 22.67150513 39.76916504 21.99517822 C40.36868476 20.61588862 40.97057628 19.23762777 41.57470703 17.86035156 C42.50207932 15.74525761 43.42152793 13.62685199 44.33984375 11.5078125 C44.92401909 10.1664662 45.50863885 8.82531335 46.09375 7.484375 C46.36981079 6.84900818 46.64587158 6.21364136 46.93029785 5.559021 C48.8838397 1.1161603 48.8838397 1.1161603 50 0 C52.86267567 -0.07325168 55.700719 -0.09238205 58.5625 -0.0625 C59.36880859 -0.05798828 60.17511719 -0.05347656 61.00585938 -0.04882812 C63.00393756 -0.03700518 65.00197783 -0.01906914 67 0 C64.76850635 7.04318028 62.07247487 13.78048119 59.1484375 20.5625 C58.68893707 21.635 58.22943665 22.7075 57.75601196 23.8125 C56.7912294 26.06210756 55.82467925 28.3109578 54.85644531 30.55908203 C53.36841908 34.01528535 51.88694056 37.47424229 50.40625 40.93359375 C49.46652966 43.12256065 48.52643882 45.31136854 47.5859375 47.5 C47.14116058 48.53842041 46.69638367 49.57684082 46.23812866 50.64672852 C45.82745148 51.59862061 45.41677429 52.5505127 44.99365234 53.53125 C44.63185883 54.37236328 44.27006531 55.21347656 43.89730835 56.08007812 C43 58 43 58 42 59 C40.65732587 59.08631874 39.31025678 59.10706473 37.96484375 59.09765625 C37.15595703 59.09443359 36.34707031 59.09121094 35.51367188 59.08789062 C34.66353516 59.07951172 33.81339844 59.07113281 32.9375 59.0625 C32.08349609 59.05798828 31.22949219 59.05347656 30.34960938 59.04882812 C28.23304337 59.03700373 26.11651315 59.01906769 24 59 C21.01277708 52.04805053 18.03076292 45.09388687 15.05532932 38.13688374 C13.67346092 34.90632041 12.28982906 31.67653681 10.90209961 28.44848633 C9.30571097 24.73484959 7.71711922 21.0179219 6.12890625 17.30078125 C5.63097061 16.14540359 5.13303497 14.99002594 4.62001038 13.79963684 C4.15960861 12.71889389 3.69920685 11.63815094 3.22485352 10.5246582 C2.61529564 9.10235649 2.61529564 9.10235649 1.99342346 7.65132141 C1 5 1 5 0 0 Z " fill="#FFFFFF" transform="translate(553,165)"/>
<path d="M0 0 C5.79561243 4.797833 8.54751537 9.19558317 9.5703125 16.703125 C10.03045723 23.59590524 8.51287062 29.30735134 5.0703125 35.265625 C-2.5046032 42.24252104 -10.44671762 43.92183561 -20.4921875 43.734375 C-27.04070325 43.25128777 -31.27675124 41.21654783 -36.1796875 36.953125 C-36.8809375 36.128125 -37.5821875 35.303125 -38.3046875 34.453125 C-38.8615625 33.834375 -39.4184375 33.215625 -39.9921875 32.578125 C-43.17897689 27.41856123 -44.14157752 21.41864872 -43.3046875 15.453125 C-41.41953774 7.86480066 -37.99285765 2.59725797 -31.3046875 -1.546875 C-21.28738157 -6.06353468 -9.34490978 -6.27217673 0 0 Z M-23.1796875 11.515625 C-25.73644316 15.04996371 -26.3046875 17.10138725 -26.3046875 21.453125 C-25.05673438 25.0583229 -23.91358822 26.94296494 -20.9921875 29.390625 C-17.53129919 30.75888317 -15.82166192 30.65039289 -12.3046875 29.453125 C-9.66468228 26.95582276 -8.49168905 25.02659642 -7.3671875 21.578125 C-7.28612988 17.52524381 -8.39512321 14.99945868 -10.3046875 11.453125 C-14.94514912 8.35948392 -18.59925543 8.22966286 -23.1796875 11.515625 Z " fill="#FFFFFF" transform="translate(432.3046875,181.546875)"/>
<path d="M0 0 C4.51565671 3.796706 7.95930797 8.10274515 9 14 C9 17.63 9 21.26 9 25 C-6.84 25.495 -6.84 25.495 -23 26 C-19.62902667 29.37097333 -18.34444481 29.89853247 -13.6875 30.25 C-9.95385569 30.23944208 -9.95385569 30.23944208 -6.8125 28.375 C-5.4203125 27.694375 -5.4203125 27.694375 -4 27 C-0.7144716 28.14505544 1.08215546 29.96446351 3.25 32.625 C3.77078125 33.25664062 4.2915625 33.88828125 4.828125 34.5390625 C5.40820312 35.26222656 5.40820312 35.26222656 6 36 C1.33859335 41.22642563 -2.99425034 43.6629917 -9.8671875 44.43359375 C-11.20292397 44.45680534 -12.53921327 44.45761242 -13.875 44.4375 C-14.57608887 44.43065186 -15.27717773 44.42380371 -15.99951172 44.41674805 C-24.73227884 44.14694374 -30.84161648 41.01175534 -37 35 C-41.56406482 28.54735663 -41.80761643 21.71511226 -41 14 C-38.99883898 7.01057907 -35.49947289 2.76330595 -29.2578125 -0.8828125 C-19.47917852 -5.72137533 -9.5437434 -5.15333354 0 0 Z M-22.5 10.875 C-24.19222773 12.83880904 -24.19222773 12.83880904 -24 15 C-18.39 15 -12.78 15 -7 15 C-9.32251426 10.11504475 -9.32251426 10.11504475 -12 9 C-17.67666509 8.3861298 -17.67666509 8.3861298 -22.5 10.875 Z " fill="#FFFFFF" transform="translate(657,181)"/>
<path d="M0 0 C4.51565671 3.796706 7.95930797 8.10274515 9 14 C9 17.63 9 21.26 9 25 C-6.84 25.495 -6.84 25.495 -23 26 C-19.62902667 29.37097333 -18.34444481 29.89853247 -13.6875 30.25 C-9.95385569 30.23944208 -9.95385569 30.23944208 -6.8125 28.375 C-5.4203125 27.694375 -5.4203125 27.694375 -4 27 C-0.7144716 28.14505544 1.08215546 29.96446351 3.25 32.625 C3.77078125 33.25664062 4.2915625 33.88828125 4.828125 34.5390625 C5.40820312 35.26222656 5.40820312 35.26222656 6 36 C1.33859335 41.22642563 -2.99425034 43.6629917 -9.8671875 44.43359375 C-11.20292397 44.45680534 -12.53921327 44.45761242 -13.875 44.4375 C-14.57608887 44.43065186 -15.27717773 44.42380371 -15.99951172 44.41674805 C-24.73227884 44.14694374 -30.84161648 41.01175534 -37 35 C-41.56406482 28.54735663 -41.80761643 21.71511226 -41 14 C-38.99883898 7.01057907 -35.49947289 2.76330595 -29.2578125 -0.8828125 C-19.47917852 -5.72137533 -9.5437434 -5.15333354 0 0 Z M-22.5 10.875 C-24.19222773 12.83880904 -24.19222773 12.83880904 -24 15 C-18.39 15 -12.78 15 -7 15 C-9.32251426 10.11504475 -9.32251426 10.11504475 -12 9 C-17.67666509 8.3861298 -17.67666509 8.3861298 -22.5 10.875 Z " fill="#FFFFFF" transform="translate(545,181)"/>
<path d="M0 0 C4.51791631 3.8713451 6.78424215 7.46060538 9 13 C9 16.96 9 20.92 9 25 C-1.56 25 -12.12 25 -23 25 C-20.47434165 29.15811388 -20.47434165 29.15811388 -17 30 C-11.24884031 30.37104256 -8.93232681 30.01419972 -4 27 C0.1724271 27.94216096 3.14968029 32.02012031 6 35 C4.59561113 38.39393978 3.13616902 40.08345227 0 42 C-8.35060368 45.30140145 -18.20595304 45.46086776 -26.625 42.25 C-33.33099174 39.06354366 -36.71575222 35.56849556 -40 29 C-42.01373611 22.48185416 -41.83518435 15.14131914 -39.08984375 8.87890625 C-35.22567765 2.2170285 -30.01125048 -1.05708602 -22.7578125 -3.33984375 C-14.6290836 -5.28567262 -7.37384779 -3.99277731 0 0 Z M-24 14 C-24 14.33 -24 14.66 -24 15 C-18.39 15 -12.78 15 -7 15 C-8.68377223 11.10540926 -8.68377223 11.10540926 -11 9 C-17.35087586 8.27121097 -19.87488903 8.71470157 -24 14 Z " fill="#FFFFFF" transform="translate(794,181)"/>
<path d="M0 0 C2.72342732 0.53318539 4.02136633 1.49400537 6.03515625 3.3984375 C6.48925781 5.75854492 6.48925781 5.75854492 6.42578125 8.50390625 C6.41289063 9.48681641 6.4 10.46972656 6.38671875 11.48242188 C6.35320313 12.50658203 6.3196875 13.53074219 6.28515625 14.5859375 C6.26710938 15.62169922 6.2490625 16.65746094 6.23046875 17.72460938 C6.18330062 20.28348034 6.11749682 22.84049592 6.03515625 25.3984375 C6.65036133 25.37749023 7.26556641 25.35654297 7.89941406 25.33496094 C10.69449434 25.25166733 13.4893134 25.19973737 16.28515625 25.1484375 C17.73728516 25.09816406 17.73728516 25.09816406 19.21875 25.046875 C26.35859476 24.94839438 26.35859476 24.94839438 29.68359375 27.16015625 C31.90603377 30.84067108 31.44050947 33.14222867 31.03515625 37.3984375 C30.37515625 38.3884375 29.71515625 39.3784375 29.03515625 40.3984375 C26.69677734 40.73901367 26.69677734 40.73901367 23.80859375 40.69140625 C22.77734375 40.68173828 21.74609375 40.67207031 20.68359375 40.66210938 C19.60335937 40.63697266 18.523125 40.61183594 17.41015625 40.5859375 C16.3221875 40.57240234 15.23421875 40.55886719 14.11328125 40.54492188 C11.42008216 40.50948504 8.72786251 40.46008081 6.03515625 40.3984375 C6.0508667 41.04917236 6.06657715 41.69990723 6.08276367 42.37036133 C6.14510274 45.31713174 6.18414309 48.26376348 6.22265625 51.2109375 C6.24779297 52.23509766 6.27292969 53.25925781 6.29882812 54.31445312 C6.30849609 55.29736328 6.31816406 56.28027344 6.328125 57.29296875 C6.34383545 58.19893799 6.3595459 59.10490723 6.37573242 60.03833008 C6.03515625 62.3984375 6.03515625 62.3984375 4.66748047 64.19482422 C2.39327023 65.87173964 0.7685676 65.76446747 -2.02734375 65.7109375 C-3.34412109 65.70513672 -3.34412109 65.70513672 -4.6875 65.69921875 C-6.96484375 65.3984375 -6.96484375 65.3984375 -8.96484375 63.3984375 C-9.19189453 61.06005859 -9.19189453 61.06005859 -9.16015625 58.171875 C-9.15371094 57.140625 -9.14726563 56.109375 -9.140625 55.046875 C-9.12386719 53.96664062 -9.10710938 52.88640625 -9.08984375 51.7734375 C-9.08082031 50.68546875 -9.07179688 49.5975 -9.0625 48.4765625 C-9.03887784 45.78363598 -9.00593931 43.09114495 -8.96484375 40.3984375 C-9.99424072 40.41414795 -9.99424072 40.41414795 -11.04443359 40.43017578 C-14.14286664 40.47165624 -17.24124136 40.49773819 -20.33984375 40.5234375 C-21.42007813 40.54019531 -22.5003125 40.55695313 -23.61328125 40.57421875 C-24.64453125 40.58066406 -25.67578125 40.58710938 -26.73828125 40.59375 C-28.16793213 40.60946045 -28.16793213 40.60946045 -29.62646484 40.62548828 C-31.96484375 40.3984375 -31.96484375 40.3984375 -33.96484375 38.3984375 C-34.265625 36.12109375 -34.265625 36.12109375 -34.27734375 33.4609375 C-34.29410156 32.58566406 -34.31085937 31.71039063 -34.328125 30.80859375 C-33.88549652 27.87201554 -33.30279592 27.17843316 -30.96484375 25.3984375 C-28.60473633 25.05786133 -28.60473633 25.05786133 -25.859375 25.10546875 C-24.87646484 25.11513672 -23.89355469 25.12480469 -22.88085938 25.13476562 C-21.85669922 25.15990234 -20.83253906 25.18503906 -19.77734375 25.2109375 C-18.74158203 25.22447266 -17.70582031 25.23800781 -16.63867188 25.25195312 C-14.08020676 25.28732361 -11.52278595 25.33668206 -8.96484375 25.3984375 C-8.9805542 24.74770264 -8.99626465 24.09696777 -9.01245117 23.42651367 C-9.07479024 20.47974326 -9.11383059 17.53311152 -9.15234375 14.5859375 C-9.17748047 13.56177734 -9.20261719 12.53761719 -9.22851562 11.48242188 C-9.23818359 10.49951172 -9.24785156 9.51660156 -9.2578125 8.50390625 C-9.27352295 7.59793701 -9.2892334 6.69196777 -9.30541992 5.75854492 C-8.96484375 3.3984375 -8.96484375 3.3984375 -7.69262695 1.6027832 C-5.25742871 -0.09466387 -2.89718269 0.03349344 0 0 Z " fill="#494646" transform="translate(843.96484375,133.6015625)"/>
<path d="M0 0 C0.93045933 2.55144824 1.08564091 3.74006478 0.22265625 6.359375 C-0.35162109 7.54273438 -0.35162109 7.54273438 -0.9375 8.75 C-1.50791016 9.94882813 -1.50791016 9.94882813 -2.08984375 11.171875 C-2.39019531 11.77515625 -2.69054687 12.3784375 -3 13 C-3.86625 12.67 -4.7325 12.34 -5.625 12 C-11.5629676 10.25426211 -17.87784069 10.8471583 -24 11 C-21.33282887 14.60970529 -17.79191031 14.8484175 -13.625 15.5 C-7.38059081 16.48788505 -2.18440613 17.97871264 2 23 C3.5446194 27.63385819 3.48978632 31.46941774 2 36.125 C-0.93618508 40.34576605 -4.90439759 42.91067888 -9.75390625 44.6171875 C-20.53290748 46.45430423 -30.98643475 45.32184705 -41 41 C-40.54738642 39.56068883 -40.08767021 38.12361001 -39.625 36.6875 C-39.36976563 35.88699219 -39.11453125 35.08648437 -38.8515625 34.26171875 C-38 32 -38 32 -36 29 C-33.13668316 29.52060306 -30.46477594 30.17167564 -27.6875 31.0625 C-23.44211281 32.14183573 -20.36199181 32.36349932 -16 32 C-14.27118602 30.55866706 -14.27118602 30.55866706 -13 29 C-14.15757812 28.81824219 -15.31515625 28.63648438 -16.5078125 28.44921875 C-18.04695908 28.19582267 -19.58601702 27.94188781 -21.125 27.6875 C-21.88554688 27.56955078 -22.64609375 27.45160156 -23.4296875 27.33007812 C-28.85073064 26.41878208 -33.60917316 25.14349993 -37.8125 21.375 C-39.65485651 17.69028698 -40.11416153 14.10267993 -40 10 C-38.38956452 5.25816221 -36.24838496 2.62134391 -32 0 C-20.84754138 -4.62370616 -11.34336753 -3.27437413 0 0 Z " fill="#FFFFFF" transform="translate(747,180)"/>
<path d="M0 0 C0 5.28 0 10.56 0 16 C-2.21354167 16.13020833 -4.42708333 16.26041667 -6.640625 16.390625 C-9.81456371 17.21038401 -10.94831502 18.45870838 -13 21 C-13.63828469 23.88873888 -13.63828469 23.88873888 -13.609375 27.078125 C-13.64160156 28.23828125 -13.67382812 29.3984375 -13.70703125 30.59375 C-13.72830078 32.40359375 -13.72830078 32.40359375 -13.75 34.25 C-13.79447266 36.08304688 -13.79447266 36.08304688 -13.83984375 37.953125 C-13.91051413 40.96839445 -13.95752397 43.98420161 -14 47 C-19.61 47 -25.22 47 -31 47 C-31 31.82 -31 16.64 -31 1 C-25.72 1 -20.44 1 -15 1 C-14.67 1.99 -14.34 2.98 -14 4 C-13.2575 3.525625 -12.515 3.05125 -11.75 2.5625 C-7.42571735 0.10552122 -5.0913015 0 0 0 Z " fill="#FFFFFF" transform="translate(704,177)"/>
<path d="M0 0 C1.65 0 3.3 0 5 0 C5.33 7.92 5.66 15.84 6 24 C13.92 24.33 21.84 24.66 30 25 C30 26.98 30 28.96 30 31 C22.08 31.33 14.16 31.66 6 32 C5.67 39.59 5.34 47.18 5 55 C3.02 55 1.04 55 -1 55 C-1 47.08 -1 39.16 -1 31 C-8.92 31 -16.84 31 -25 31 C-25 29.02 -25 27.04 -25 25 C-17.41 24.67 -9.82 24.34 -2 24 C-1.71073084 16.47590193 -1.71073084 16.47590193 -1.43188477 8.95141602 C-1.39377686 8.01998779 -1.35566895 7.08855957 -1.31640625 6.12890625 C-1.27974854 5.17056885 -1.24309082 4.21223145 -1.20532227 3.22485352 C-1 1 -1 1 0 0 Z " fill="#F5F5F5" transform="translate(840,139)"/>
<path d="M0 0 C7.87742959 6.75208251 7.87742959 6.75208251 11.33203125 10.015625 C12.06744141 10.70914063 12.80285156 11.40265625 13.56054688 12.1171875 C14.30369141 12.82101563 15.04683594 13.52484375 15.8125 14.25 C16.57498047 14.96929687 17.33746094 15.68859375 18.12304688 16.4296875 C23.62797619 21.62797619 23.62797619 21.62797619 26 24 C25.81640625 25.97705078 25.81640625 25.97705078 25 28 C22.69280736 29.78336574 20.46107154 31.33690415 18 32.875 C16.63278008 33.75515798 15.26559251 34.6353662 13.8984375 35.515625 C13.23166992 35.93908203 12.56490234 36.36253906 11.87792969 36.79882812 C9.43057262 38.36422032 7.0276892 39.99210442 4.625 41.625 C1.12154696 44 1.12154696 44 0 44 C0 29.48 0 14.96 0 0 Z " fill="#A900CE" transform="translate(230,126)"/>
<path d="M0 0 C0 13.53 0 27.06 0 41 C-4.43741295 37.19650319 -8.82745546 33.39101539 -13.125 29.4375 C-13.62386719 28.98181641 -14.12273438 28.52613281 -14.63671875 28.05664062 C-17.84250184 25.11451854 -20.94389077 22.09529012 -24 19 C-22.58036833 15.58084145 -20.98119443 13.95760425 -17.97265625 11.8359375 C-17.18052734 11.27132812 -16.38839844 10.70671875 -15.57226562 10.125 C-14.74404297 9.5475 -13.91582031 8.97 -13.0625 8.375 C-12.23814453 7.78976563 -11.41378906 7.20453125 -10.56445312 6.6015625 C-1.24504551 0 -1.24504551 0 0 0 Z " fill="#3601B1" transform="translate(76,226)"/>
</svg>
